<mxfile host="app.diagrams.net" modified="2023-07-19T07:11:43.958Z" agent="Mozilla/5.0 (Macintosh; Intel Mac OS X 10_15_7) AppleWebKit/537.36 (KHTML, like Gecko) Chrome/114.0.0.0 Safari/537.36" version="21.5.1" etag="kpFxbC1yYHGnMMQOoeZc" type="github">
  <diagram name="第 1 页" id="mcftxhT0yvvc1qlR4rh5">
    <mxGraphModel>
      <root>
        <mxCell id="0" />
        <mxCell id="1" parent="0" />
      </root>
    </mxGraphModel>
  </diagram>
</mxfile>
